<svg width="208" height="40" viewBox="0 0 208 40" fill="none" xmlns="http://www.w3.org/2000/svg">
<path d="M22.4 33.3333H37.2C37.6723 33.3333 38.1243 33.1675 38.5333 32.9333C38.9424 32.6992 39.364 32.4055 39.6 32C39.836 31.5945 40.0003 31.1347 40 30.6665C39.9997 30.1984 39.8364 29.7387 39.6 29.3335L29.6 12.1333C29.364 11.728 29.0756 11.434 28.6667 11.2C28.2577 10.966 27.6723 10.8 27.2 10.8C26.7277 10.8 26.2756 10.966 25.8667 11.2C25.4577 11.434 25.1693 11.728 24.9333 12.1333L22.4 16.5333L17.3333 7.99969C17.0971 7.59438 16.8091 7.16733 16.4 6.93334C15.9909 6.69935 15.5389 6.66667 15.0667 6.66667C14.5944 6.66667 14.1424 6.69935 13.7333 6.93334C13.3243 7.16733 12.9029 7.59438 12.6667 7.99969L0.266667 29.3335C0.0302646 29.7387 0.000206509 30.1984 1.01441e-06 30.6665C-0.00020448 31.1347 0.0306205 31.5945 0.266667 32C0.502714 32.4053 0.924327 32.6992 1.33333 32.9333C1.74233 33.1675 2.19437 33.3333 2.66667 33.3333H12C15.6983 33.3333 18.39 31.6744 20.2667 28.5333L24.8 20.6667L27.2 16.5333L34.5333 29.0667H24.8L22.4 33.3333ZM11.8667 29.0667H5.33333L15.0667 12.2667L20 20.6667L16.7321 26.3633C15.4859 28.4013 14.0651 29.0667 11.8667 29.0667Z" fill="#4451c7"/>
<rect x="45.5" y="4.5" width="155" height="31" rx="7.5" fill="white"/>
<rect x="45.5" y="4.5" width="155" height="31" rx="7.5" stroke="#4451c7"/>
<path d="M53.762 29.422L50.738 29.152L51.404 16.786C51.092 16.858 50.804 16.942 50.54 17.038L50 13.978C50.636 13.846 51.422 13.708 52.358 13.564C53.294 13.42 54.26 13.348 55.256 13.348C56.024 13.348 56.804 13.432 57.596 13.6C58.388 13.756 59.144 14.02 59.864 14.392C60.596 14.752 61.244 15.238 61.808 15.85C62.384 16.462 62.834 17.212 63.158 18.1C63.494 18.988 63.662 20.038 63.662 21.25C63.662 22.954 63.386 24.412 62.834 25.624C62.294 26.824 61.502 27.742 60.458 28.378C59.426 29.014 58.178 29.332 56.714 29.332C55.742 29.332 54.782 29.152 53.834 28.792C53.81 29.032 53.786 29.242 53.762 29.422ZM55.13 16.372C54.962 16.372 54.788 16.372 54.608 16.372C54.488 18.604 54.38 20.506 54.284 22.078C54.188 23.638 54.104 24.94 54.032 25.984C54.392 26.104 54.788 26.212 55.22 26.308C55.664 26.392 56.126 26.434 56.606 26.434C57.578 26.434 58.358 26.188 58.946 25.696C59.546 25.204 59.978 24.556 60.242 23.752C60.506 22.936 60.638 22.054 60.638 21.106C60.638 20.35 60.524 19.708 60.296 19.18C60.068 18.652 59.768 18.214 59.396 17.866C59.036 17.518 58.64 17.248 58.208 17.056C57.776 16.852 57.35 16.702 56.93 16.606C56.522 16.51 56.156 16.45 55.832 16.426C55.508 16.39 55.274 16.372 55.13 16.372ZM68.7818 29.278L65.7038 28.702C66.2798 26.374 66.8798 24.268 67.5038 22.384C68.1398 20.5 68.7938 18.886 69.4658 17.542C70.1378 16.198 70.8218 15.166 71.5178 14.446C72.2258 13.714 72.9338 13.348 73.6418 13.348C75.0698 13.348 76.3838 14.674 77.5838 17.326C78.7838 19.966 79.8038 23.794 80.6438 28.81L77.4578 29.242C77.3138 28.45 77.1578 27.64 76.9898 26.812C76.8218 25.972 76.6478 25.156 76.4678 24.364C76.1798 24.352 75.8678 24.346 75.5318 24.346C74.9438 24.346 74.3198 24.358 73.6598 24.382C73.0118 24.406 72.3698 24.448 71.7338 24.508C71.1098 24.556 70.5278 24.61 69.9878 24.67C69.7598 25.438 69.5378 26.218 69.3218 27.01C69.1178 27.79 68.9378 28.546 68.7818 29.278ZM72.0938 18.766C71.8298 19.33 71.4758 20.242 71.0318 21.502C71.5478 21.442 72.0938 21.4 72.6698 21.376C73.2458 21.34 73.8098 21.322 74.3618 21.322C74.8298 21.322 75.2798 21.334 75.7118 21.358C75.5438 20.746 75.3818 20.2 75.2258 19.72C75.0818 19.24 74.9498 18.862 74.8298 18.586C74.5778 17.938 74.3558 17.482 74.1638 17.218C73.9718 16.942 73.7738 16.804 73.5698 16.804C73.3538 16.804 73.1378 16.948 72.9218 17.236C72.7058 17.512 72.4298 18.022 72.0938 18.766ZM89.6567 29.44C88.6487 29.44 87.7127 29.29 86.8487 28.99C85.9847 28.69 85.2047 28.294 84.5087 27.802C83.8247 27.298 83.2247 26.758 82.7087 26.182L84.5087 23.32C84.6647 23.728 84.9227 24.118 85.2827 24.49C85.6547 24.862 86.0867 25.192 86.5787 25.48C87.0707 25.768 87.5867 25.996 88.1267 26.164C88.6787 26.332 89.2187 26.416 89.7467 26.416C90.5387 26.416 91.1687 26.29 91.6367 26.038C92.1047 25.774 92.3387 25.426 92.3387 24.994C92.3387 24.658 92.2307 24.382 92.0147 24.166C91.8107 23.938 91.5707 23.758 91.2947 23.626C91.0307 23.482 90.8027 23.356 90.6107 23.248C90.4667 23.176 90.2027 23.068 89.8187 22.924C89.4467 22.768 89.0267 22.6 88.5587 22.42C88.0907 22.24 87.6467 22.072 87.2267 21.916C86.8067 21.748 86.4767 21.61 86.2367 21.502C84.4487 20.698 83.5547 19.456 83.5547 17.776C83.5547 17.236 83.6567 16.708 83.8607 16.192C84.0767 15.664 84.4007 15.184 84.8327 14.752C85.2647 14.32 85.8167 13.978 86.4887 13.726C87.1607 13.474 87.9647 13.348 88.9007 13.348C89.9207 13.348 90.8267 13.462 91.6187 13.69C92.4107 13.906 93.1067 14.182 93.7067 14.518C94.3187 14.854 94.8407 15.208 95.2727 15.58L93.6167 18.352C92.2847 17.032 90.7787 16.372 89.0987 16.372C88.3907 16.372 87.8507 16.45 87.4787 16.606C87.1187 16.75 86.8727 16.918 86.7407 17.11C86.6207 17.29 86.5607 17.44 86.5607 17.56C86.5607 17.764 86.6327 17.968 86.7767 18.172C86.9327 18.376 87.2747 18.592 87.8027 18.82C88.0187 18.916 88.3067 19.036 88.6667 19.18C89.0387 19.312 89.4467 19.462 89.8907 19.63C90.3467 19.798 90.7907 19.978 91.2227 20.17C91.6667 20.35 92.0687 20.536 92.4287 20.728C92.8607 20.968 93.3047 21.262 93.7607 21.61C94.2167 21.958 94.6007 22.39 94.9127 22.906C95.2367 23.41 95.3987 24.028 95.3987 24.76C95.3987 25.204 95.3147 25.696 95.1467 26.236C94.9787 26.764 94.6847 27.274 94.2647 27.766C93.8447 28.258 93.2627 28.66 92.5187 28.972C91.7747 29.284 90.8207 29.44 89.6567 29.44ZM98.7578 29.296C98.6498 28.624 98.5718 27.802 98.5238 26.83C98.4758 25.858 98.4518 24.808 98.4518 23.68C98.4518 22.516 98.4698 21.322 98.5058 20.098C98.5538 18.874 98.6078 17.698 98.6678 16.57C98.7398 15.43 98.8178 14.422 98.9018 13.546L102.034 13.6C101.902 14.44 101.794 15.376 101.71 16.408C101.638 17.428 101.578 18.49 101.53 19.594C102.382 19.474 103.306 19.384 104.302 19.324C105.298 19.264 106.258 19.234 107.182 19.234C107.626 19.234 108.052 19.246 108.46 19.27C108.448 18.37 108.43 17.53 108.406 16.75C108.382 15.97 108.352 15.31 108.316 14.77C108.28 14.23 108.238 13.858 108.19 13.654L111.286 13.456C111.394 14.464 111.478 15.67 111.538 17.074C111.61 18.478 111.646 19.966 111.646 21.538C111.646 22.81 111.622 24.106 111.574 25.426C111.526 26.734 111.442 27.994 111.322 29.206H108.316C108.364 28.822 108.4 28.3 108.424 27.64C108.448 26.968 108.466 26.212 108.478 25.372C108.49 24.52 108.496 23.632 108.496 22.708C108.496 22.54 108.496 22.366 108.496 22.186C108.268 22.186 108.034 22.186 107.794 22.186C107.566 22.174 107.332 22.168 107.092 22.168C106.144 22.168 105.184 22.204 104.212 22.276C103.252 22.336 102.334 22.426 101.458 22.546C101.458 22.93 101.458 23.314 101.458 23.698C101.458 24.754 101.464 25.744 101.476 26.668C101.5 27.592 101.536 28.432 101.584 29.188L98.7578 29.296ZM115.472 29.242C115.46 29.11 115.454 28.966 115.454 28.81C115.454 28.654 115.454 28.474 115.454 28.27C115.454 27.754 115.466 27.142 115.49 26.434C115.514 25.714 115.55 24.952 115.598 24.148C115.646 23.332 115.694 22.516 115.742 21.7C115.79 20.872 115.838 20.08 115.886 19.324C115.946 18.568 116 17.89 116.048 17.29C115.784 17.374 115.55 17.452 115.346 17.524L114.878 14.5C116.234 14.116 117.494 13.828 118.658 13.636C119.834 13.444 120.896 13.348 121.844 13.348C123.776 13.348 125.252 13.714 126.272 14.446C127.292 15.178 127.802 16.24 127.802 17.632C127.802 18.424 127.628 19.09 127.28 19.63C126.932 20.158 126.44 20.596 125.804 20.944C127.364 21.736 128.144 23.026 128.144 24.814C128.144 25.606 127.994 26.272 127.694 26.812C127.406 27.34 127.034 27.766 126.578 28.09C126.122 28.414 125.636 28.654 125.12 28.81C124.616 28.978 124.136 29.086 123.68 29.134C123.236 29.194 122.888 29.224 122.636 29.224C122.012 29.224 121.346 29.164 120.638 29.044C119.93 28.924 119.24 28.744 118.568 28.504C118.568 28.744 118.568 28.972 118.568 29.188L115.472 29.242ZM121.916 16.354C121.484 16.354 121.028 16.378 120.548 16.426C120.08 16.462 119.612 16.522 119.144 16.606C119.072 17.482 119 18.502 118.928 19.666C119.084 19.678 119.24 19.684 119.396 19.684C119.564 19.684 119.732 19.684 119.9 19.684C123.068 19.684 124.652 19.036 124.652 17.74C124.652 17.308 124.406 16.972 123.914 16.732C123.434 16.48 122.768 16.354 121.916 16.354ZM120.314 22.528C120.062 22.528 119.804 22.528 119.54 22.528C119.288 22.528 119.03 22.534 118.766 22.546C118.742 23.074 118.718 23.602 118.694 24.13C118.682 24.658 118.664 25.18 118.64 25.696C119.312 25.9 119.972 26.05 120.62 26.146C121.268 26.23 121.826 26.272 122.294 26.272C123.29 26.272 124.004 26.152 124.436 25.912C124.868 25.66 125.084 25.252 125.084 24.688C125.084 23.992 124.67 23.458 123.842 23.086C123.026 22.714 121.85 22.528 120.314 22.528ZM138.378 29.206C137.25 29.206 136.224 28.996 135.3 28.576C134.376 28.168 133.578 27.598 132.906 26.866C132.234 26.134 131.718 25.3 131.358 24.364C130.998 23.428 130.818 22.438 130.818 21.394C130.818 20.434 130.962 19.492 131.25 18.568C131.538 17.632 131.976 16.786 132.564 16.03C133.152 15.262 133.896 14.65 134.796 14.194C135.708 13.738 136.782 13.51 138.018 13.51C139.302 13.51 140.418 13.732 141.366 14.176C142.314 14.608 143.094 15.19 143.706 15.922C144.318 16.654 144.774 17.482 145.074 18.406C145.374 19.33 145.524 20.278 145.524 21.25C145.524 22.414 145.35 23.482 145.002 24.454C144.654 25.426 144.162 26.272 143.526 26.992C142.89 27.7 142.134 28.246 141.258 28.63C140.382 29.014 139.422 29.206 138.378 29.206ZM138.378 26.2C139.098 26.2 139.764 26.026 140.376 25.678C140.988 25.318 141.48 24.76 141.852 24.004C142.224 23.248 142.41 22.264 142.41 21.052C142.41 20.008 142.206 19.15 141.798 18.478C141.39 17.806 140.862 17.308 140.214 16.984C139.566 16.66 138.888 16.498 138.18 16.498C137.376 16.498 136.698 16.642 136.146 16.93C135.594 17.218 135.15 17.608 134.814 18.1C134.478 18.58 134.238 19.12 134.094 19.72C133.95 20.32 133.878 20.938 133.878 21.574C133.878 22.198 133.998 22.792 134.238 23.356C134.478 23.908 134.802 24.4 135.21 24.832C135.63 25.252 136.11 25.588 136.65 25.84C137.19 26.08 137.766 26.2 138.378 26.2ZM150.862 29.278L147.784 28.702C148.36 26.374 148.96 24.268 149.584 22.384C150.22 20.5 150.874 18.886 151.546 17.542C152.218 16.198 152.902 15.166 153.598 14.446C154.306 13.714 155.014 13.348 155.722 13.348C157.15 13.348 158.464 14.674 159.664 17.326C160.864 19.966 161.884 23.794 162.724 28.81L159.538 29.242C159.394 28.45 159.238 27.64 159.07 26.812C158.902 25.972 158.728 25.156 158.548 24.364C158.26 24.352 157.948 24.346 157.612 24.346C157.024 24.346 156.4 24.358 155.74 24.382C155.092 24.406 154.45 24.448 153.814 24.508C153.19 24.556 152.608 24.61 152.068 24.67C151.84 25.438 151.618 26.218 151.402 27.01C151.198 27.79 151.018 28.546 150.862 29.278ZM154.174 18.766C153.91 19.33 153.556 20.242 153.112 21.502C153.628 21.442 154.174 21.4 154.75 21.376C155.326 21.34 155.89 21.322 156.442 21.322C156.91 21.322 157.36 21.334 157.792 21.358C157.624 20.746 157.462 20.2 157.306 19.72C157.162 19.24 157.03 18.862 156.91 18.586C156.658 17.938 156.436 17.482 156.244 17.218C156.052 16.942 155.854 16.804 155.65 16.804C155.434 16.804 155.218 16.948 155.002 17.236C154.786 17.512 154.51 18.022 154.174 18.766ZM166.301 29.242C166.265 28.426 166.247 27.526 166.247 26.542C166.247 25.594 166.265 24.586 166.301 23.518C166.337 22.45 166.391 21.37 166.463 20.278C166.535 19.174 166.631 18.1 166.751 17.056C166.559 17.104 166.373 17.152 166.193 17.2C166.025 17.236 165.869 17.278 165.725 17.326L164.807 14.464C167.711 13.78 170.129 13.438 172.061 13.438C175.985 13.438 177.947 14.932 177.947 17.92C177.947 19.324 177.479 20.44 176.543 21.268C175.607 22.084 174.233 22.6 172.421 22.816C173.513 23.74 174.611 24.502 175.715 25.102C176.831 25.69 177.959 26.188 179.099 26.596L177.119 29.242C176.483 29.014 175.817 28.696 175.121 28.288C174.425 27.88 173.735 27.43 173.051 26.938C172.367 26.446 171.713 25.948 171.089 25.444C170.477 24.94 169.931 24.472 169.451 24.04C169.439 24.868 169.427 25.708 169.415 26.56C169.415 27.4 169.415 28.27 169.415 29.17L169.307 29.278C168.851 29.278 168.359 29.278 167.831 29.278C167.315 29.29 166.847 29.314 166.427 29.35L166.301 29.242ZM171.899 16.3C171.563 16.3 171.215 16.318 170.855 16.354C170.495 16.378 170.135 16.414 169.775 16.462C169.727 17.134 169.685 17.8 169.649 18.46C169.613 19.108 169.583 19.756 169.559 20.404C170.087 20.392 170.657 20.362 171.269 20.314C171.893 20.254 172.481 20.146 173.033 19.99C173.585 19.822 174.035 19.582 174.383 19.27C174.743 18.958 174.923 18.544 174.923 18.028C174.923 17.428 174.677 16.99 174.185 16.714C173.693 16.438 172.931 16.3 171.899 16.3ZM184.475 29.422L181.451 29.152L182.117 16.786C181.805 16.858 181.517 16.942 181.253 17.038L180.713 13.978C181.349 13.846 182.135 13.708 183.071 13.564C184.007 13.42 184.973 13.348 185.969 13.348C186.737 13.348 187.517 13.432 188.309 13.6C189.101 13.756 189.857 14.02 190.577 14.392C191.309 14.752 191.957 15.238 192.521 15.85C193.097 16.462 193.547 17.212 193.871 18.1C194.207 18.988 194.375 20.038 194.375 21.25C194.375 22.954 194.099 24.412 193.547 25.624C193.007 26.824 192.215 27.742 191.171 28.378C190.139 29.014 188.891 29.332 187.427 29.332C186.455 29.332 185.495 29.152 184.547 28.792C184.523 29.032 184.499 29.242 184.475 29.422ZM185.843 16.372C185.675 16.372 185.501 16.372 185.321 16.372C185.201 18.604 185.093 20.506 184.997 22.078C184.901 23.638 184.817 24.94 184.745 25.984C185.105 26.104 185.501 26.212 185.933 26.308C186.377 26.392 186.839 26.434 187.319 26.434C188.291 26.434 189.071 26.188 189.659 25.696C190.259 25.204 190.691 24.556 190.955 23.752C191.219 22.936 191.351 22.054 191.351 21.106C191.351 20.35 191.237 19.708 191.009 19.18C190.781 18.652 190.481 18.214 190.109 17.866C189.749 17.518 189.353 17.248 188.921 17.056C188.489 16.852 188.063 16.702 187.643 16.606C187.235 16.51 186.869 16.45 186.545 16.426C186.221 16.39 185.987 16.372 185.843 16.372Z" fill="#4451c7"/>
</svg>
